<svg width="480" height="480" viewBox="0 0 480 480" fill="none" xmlns="http://www.w3.org/2000/svg">
<g clip-path="url(#clip0_450_2)">
<rect x="12" y="12" width="456" height="456" rx="30" fill="#005F6A" stroke="#005F6A" stroke-width="24"/>
<mask id="mask0_450_2" style="mask-type:alpha" maskUnits="userSpaceOnUse" x="0" y="0" width="480" height="480">
<rect width="480" height="480" rx="42" fill="#005F6A"/>
</mask>
<g mask="url(#mask0_450_2)">
<path d="M-253.444 365.083L65.7883 421.715" stroke="#D9D9D9" stroke-width="24"/>
<path d="M68 173L64.6902 421.864" stroke="#D9D9D9" stroke-width="24"/>
<path d="M64.6904 421.864L307 208" stroke="#D9D9D9" stroke-width="24"/>
<path d="M63.5928 422.012L274.429 642.984" stroke="#D9D9D9" stroke-width="24"/>
<path d="M61.3975 422.309L285.036 428.953" stroke="#D9D9D9" stroke-width="24"/>
<path d="M61.3975 422.309L-77.1243 641.7" stroke="#D9D9D9" stroke-width="24"/>
<path d="M52.5295 325.676C107.367 318.263 157.598 355.517 165.189 408.277C172.78 461.037 134.982 510.191 80.1453 517.605C25.308 525.018 -24.9235 487.765 -32.5152 435.005C-40.1066 382.245 -2.30794 333.09 52.5295 325.676Z" fill="#D9D9D9" stroke="#D9D9D9" stroke-width="20"/>
<path d="M62.0891 110.879C96.0766 106.285 127.487 129.503 132.265 162.714C137.044 195.925 113.386 226.587 79.399 231.182C45.4114 235.777 14.0004 212.559 9.22172 179.348C4.44312 146.137 28.1014 115.474 62.0891 110.879Z" fill="#D9D9D9" stroke="#D9D9D9"/>
<path d="M297.682 120.529C347.1 113.848 392.402 147.666 399.286 195.513C406.171 243.36 372.144 287.904 322.726 294.585C273.308 301.265 228.007 267.446 221.123 219.599C214.239 171.753 248.264 127.21 297.682 120.529Z" fill="#008595" stroke="#D9D9D9" stroke-width="24"/>
<path d="M277.364 379.516C305.894 375.659 332.265 395.187 336.283 423.11C340.301 451.033 320.448 476.81 291.918 480.668C263.387 484.525 237.015 464.997 232.997 437.074C228.979 409.15 248.833 383.373 277.364 379.516Z" fill="#D9D9D9" stroke="#D9D9D9"/>
<rect x="12" y="12" width="456" height="456" rx="30" stroke="#005F6A" stroke-width="24"/>
</g>
</g>
<defs>
<clipPath id="clip0_450_2">
<rect width="480" height="480" fill="white"/>
</clipPath>
</defs>
</svg>
